<svg width="190" height="37" viewBox="0 0 190 37" fill="none" xmlns="http://www.w3.org/2000/svg">
<path fill-rule="evenodd" clip-rule="evenodd" d="M18 34.8572C14.7649 34.8572 11.6024 33.8979 8.9124 32.1005C6.2225 30.3032 4.12596 27.7485 2.88792 24.7596C1.64989 21.7708 1.32596 18.4818 1.9571 15.3089C2.58825 12.1359 4.14612 9.2213 6.43372 6.93373C8.7213 4.64613 11.6359 3.08826 14.8089 2.45711C17.9818 1.82596 21.2708 2.1499 24.2596 3.38793C27.2485 4.62597 29.8032 6.72251 31.6005 9.41248C33.3979 12.1024 34.3572 15.2649 34.3572 18.5H18V34.8572Z" fill="url(#paint0_linear_38_103)"/>
<path d="M52.8963 29V7.18182H57.5092V25.1967H66.8629V29H52.8963ZM74.2607 7.18182V29H69.6478V7.18182H74.2607ZM76.955 10.9851V7.18182H94.8741V10.9851H88.1944V29H83.6347V10.9851H76.955ZM102.466 29L96.2234 7.18182H101.262L104.874 22.3416H105.055L109.039 7.18182H113.354L117.328 22.3736H117.52L121.131 7.18182H126.17L119.927 29H115.431L111.277 14.7351H111.106L106.962 29H102.466ZM129.932 29H124.989L132.521 7.18182H138.466L145.987 29H141.044L135.579 12.1676H135.408L129.932 29ZM129.623 20.424H141.3V24.0249H129.623V20.424ZM148.343 29V7.18182H156.951C158.599 7.18182 160.005 7.47656 161.17 8.06605C162.342 8.64844 163.233 9.47585 163.844 10.5483C164.462 11.6136 164.771 12.8672 164.771 14.3089C164.771 15.7578 164.458 17.0043 163.833 18.0483C163.208 19.0852 162.303 19.8807 161.117 20.4347C159.938 20.9886 158.51 21.2656 156.834 21.2656H151.07V17.5582H156.088C156.969 17.5582 157.7 17.4375 158.283 17.196C158.865 16.9545 159.298 16.5923 159.583 16.1094C159.874 15.6264 160.019 15.0263 160.019 14.3089C160.019 13.5845 159.874 12.9737 159.583 12.4766C159.298 11.9794 158.862 11.603 158.272 11.3473C157.69 11.0845 156.955 10.9531 156.067 10.9531H152.956V29H148.343ZM160.126 19.071L165.548 29H160.456L155.151 19.071H160.126ZM167.761 29V7.18182H182.462V10.9851H172.374V16.1839H181.706V19.9872H172.374V25.1967H182.505V29H167.761Z" fill="url(#paint1_linear_38_103)"/>
<defs>
<linearGradient id="paint0_linear_38_103" x1="18" y1="0.5" x2="18" y2="36.5" gradientUnits="userSpaceOnUse">
<stop stop-color="#F52482"/>
<stop offset="1" stop-color="#4CC9F0"/>
</linearGradient>
<linearGradient id="paint1_linear_38_103" x1="118" y1="7" x2="118" y2="30" gradientUnits="userSpaceOnUse">
<stop stop-color="#F52482"/>
<stop offset="1" stop-color="#4CC9F0"/>
</linearGradient>
</defs>
</svg>
